<?xml version="1.0" encoding="utf-8"?>
<!-- Generator: Adobe Illustrator 28.0.0, SVG Export Plug-In . SVG Version: 6.00 Build 0)  -->
<svg version="1.1" id="Layer_1" xmlns="http://www.w3.org/2000/svg" xmlns:xlink="http://www.w3.org/1999/xlink" x="0px" y="0px"
	 viewBox="0 0 290 100" style="enable-background:new 0 0 290 100;" xml:space="preserve">
<style type="text/css">
	.st0{fill-rule:evenodd;clip-rule:evenodd;fill:#231F20;}
	.st1{fill:#231F20;}
	.st2{fill:#FFFFFF;}
	.st3{fill:#F58025;}
	.st4{clip-path:url(#SVGID_00000117656615647250872440000009468593526090571682_);fill:#FFFFFF;}
	.st5{clip-path:url(#SVGID_00000117656615647250872440000009468593526090571682_);fill:#EF943D;}
	.st6{clip-path:url(#SVGID_00000117656615647250872440000009468593526090571682_);fill:#3C8941;}
	.st7{clip-path:url(#SVGID_00000117656615647250872440000009468593526090571682_);}
	.st8{clip-path:url(#SVGID_00000078741093651200683520000015529836141388140692_);fill:#2A2874;}
	.st9{clip-path:url(#SVGID_00000078741093651200683520000015529836141388140692_);fill:#FFFFFF;}
</style>
<g>
	<g>
		<path class="st0" d="M72,60.2c-2.1,0-3.1,1.8-3.1,3.6c0,2,1.2,3,2.6,3c1.9,0,3.1-1.5,3.1-3.6C74.6,61.1,73.3,60.2,72,60.2L72,60.2
			z"/>
		<g>
			<path class="st1" d="M59,43l-0.1,0.5l0.9,0.1c0.4,0,0.5,0.3,0.3,0.8l-1.4,7c-0.2,0.9-0.4,1.5-0.5,2.1c-0.2,0.5-0.4,0.7-0.9,0.7
				l-0.5,0.1l-0.1,0.5h3.6l0.1-0.5l-0.6-0.1c-0.5-0.1-0.8-0.2-0.7-0.7c0-0.6,0.1-1.2,0.3-2.1l1.4-7l0,0c1.4,3.4,2.9,6.9,4.3,10.3h1
				l1.7-8.4c0.2-0.9,0.4-1.5,0.5-2.1c0.2-0.5,0.4-0.7,0.9-0.7l0.5-0.1l0.1-0.5h-3.6l-0.1,0.5l0.6,0.1c0.5,0.1,0.8,0.2,0.7,0.7
				c0,0.6-0.1,1.2-0.3,2.1L66,52.5h-0.1c-1.3-3.2-2.6-6.4-3.9-9.5H59L59,43z"/>
			<path class="st1" d="M71.6,43l-0.1,0.5l0.9,0.1c0.4,0,0.5,0.2,0.3,0.8l-1.8,9c-0.1,0.6-0.3,0.8-0.6,0.8l-0.9,0.1l-0.1,0.5h8
				l0.8-3h-0.5c-0.8,2.1-1.5,2.4-3.4,2.4c-0.8,0-1.5-0.1-1.7-0.2c-0.2-0.2-0.2-0.5-0.1-1.3l0.8-3.7h2c1.4,0,1.4,0.4,1.3,1.5H77
				l0.7-3.5h-0.5c-0.4,1.2-0.6,1.4-1.9,1.4h-2l0.9-4.2c0.1-0.4,0.2-0.5,0.4-0.5h1.9c1.9,0,1.9,0.7,1.8,2.2h0.5l0.6-2.8L71.6,43
				L71.6,43z"/>
			<path class="st1" d="M80.6,43l-0.1,0.5l0.7,0.1c0.3,0,0.4,0.2,0.4,0.7l0.7,10.5h1.1l4.2-9.4h0.1l0.8,9.4h1.1l2.7-6.1
				c0.9-1.9,1.6-3.6,1.9-4.2c0.4-0.8,0.5-0.9,1.5-1l0.1-0.5h-3.4l-0.1,0.5l1,0.1c0.2,0,0.3,0.2,0.1,0.6c-0.2,0.7-0.8,2.1-1.8,4.2
				l-1.8,4.3h-0.1l-0.8-9.4h-1.1l-4.2,9.4h-0.1L83,44.2c0-0.4,0.1-0.5,0.3-0.5l1-0.1l0.1-0.5h-3.8V43z"/>
			<path class="st1" d="M101,43l-0.1,0.5l0.9,0.1c0.4,0,0.5,0.2,0.3,0.8l-1.8,9c-0.1,0.6-0.3,0.8-0.6,0.8l-0.9,0.1l-0.1,0.5h8l0.8-3
				H107c-0.8,2.1-1.5,2.4-3.4,2.4c-0.8,0-1.5-0.1-1.7-0.2c-0.2-0.2-0.2-0.5-0.1-1.3l0.8-3.7h2c1.4,0,1.4,0.4,1.3,1.5h0.5l0.7-3.5
				h-0.5c-0.4,1.2-0.6,1.4-1.9,1.4h-2l0.9-4.2c0.1-0.4,0.2-0.5,0.4-0.5h1.9c1.9,0,1.9,0.7,1.8,2.2h0.5l0.6-2.8L101,43L101,43z"/>
			<path class="st1" d="M110.8,43l-0.1,0.5l0.9,0.1c0.4,0,0.5,0.3,0.3,0.8l-1.4,7c-0.2,0.9-0.4,1.5-0.5,2.1
				c-0.2,0.5-0.4,0.7-0.9,0.7l-0.5,0.1l-0.1,0.5h3.6l0.1-0.5l-0.6-0.1c-0.5-0.1-0.8-0.2-0.7-0.7c0-0.6,0.1-1.2,0.3-2.1l1.4-7l0,0
				c1.4,3.4,2.9,6.9,4.3,10.3h1l1.7-8.4c0.2-0.9,0.4-1.5,0.5-2.1c0.2-0.5,0.4-0.7,0.9-0.7l0.5-0.1l0.1-0.5H118l-0.1,0.5l0.6,0.1
				c0.5,0.1,0.8,0.2,0.7,0.7c0,0.6-0.1,1.2-0.3,2.1l-1.3,6.1h-0.1c-1.3-3.2-2.6-6.4-3.9-9.5h-2.8L110.8,43L110.8,43z"/>
			<path class="st1" d="M131.6,43.6c-0.9-0.6-2.2-0.8-3.4-0.8c-2.4,0-4.1,0.9-5.1,2.4c-1,1.4-1.5,3.2-1.5,4.7c0,1.7,0.5,3.1,1.3,3.8
				c0.9,0.9,2.2,1.3,3.6,1.3c1.1,0,2.4-0.3,3.3-0.6l0.7-3.4c0.1-0.6,0.2-0.8,0.5-0.9l0.7-0.1l0.1-0.5h-4l-0.1,0.5l1.2,0.1
				c0.3,0,0.4,0.2,0.3,0.8l-0.6,2.6c-0.1,0.5-0.3,0.9-1.9,0.9c-1.9,0-3.2-1.4-3.2-4.4c0-2.7,1.2-6.7,4.9-6.7c2.3,0,2.6,1.4,2.4,2.9
				h0.5L131.6,43.6L131.6,43.6z"/>
			<path class="st1" d="M139.5,54.7l0.8-3h-0.5c-0.8,2.1-1.5,2.4-3.2,2.4c-0.8,0-1.5-0.1-1.7-0.2c-0.2-0.2-0.2-0.5-0.1-1.3l1.7-8.3
				c0.1-0.6,0.3-0.8,0.7-0.8l0.9-0.1l0.1-0.5H134l-0.1,0.5l0.9,0.1c0.4,0,0.5,0.3,0.3,0.8l-1.8,8.9c-0.1,0.6-0.3,0.8-0.7,0.8
				l-0.8,0.1l-0.1,0.5L139.5,54.7L139.5,54.7z"/>
			<path class="st0" d="M151.2,54.7l0.1-0.5l-0.6-0.1c-0.5-0.1-0.5-0.3-0.6-1L149,43h-1.1l-2.6,5c-0.8,1.5-2.1,4-2.6,5.1
				c-0.5,0.9-0.8,1.1-1.2,1.1l-0.5,0.1l-0.1,0.5h3.5l0.1-0.5l-0.8-0.1c-0.3,0-0.3-0.3-0.2-0.6c0.5-1.1,1-2.2,1.6-3.3h3.4l0.4,3.3
				c0,0.5-0.1,0.6-0.4,0.7l-0.8,0.1l-0.1,0.5h3.6L151.2,54.7L151.2,54.7z M148.3,49.6h-3.1c0.8-1.7,1.7-3.3,2.5-5l0,0L148.3,49.6
				L148.3,49.6z"/>
			<path class="st1" d="M154.2,43l-0.1,0.5l0.9,0.1c0.3,0,0.5,0.3,0.3,0.8l-1.4,7c-0.2,0.9-0.4,1.5-0.5,2.1
				c-0.2,0.5-0.4,0.7-0.9,0.7l-0.5,0.1l-0.1,0.5h3.6l0.1-0.5l-0.6-0.1c-0.5-0.1-0.8-0.2-0.7-0.7c0-0.6,0.1-1.2,0.3-2.1l1.4-7l0,0
				c1.4,3.4,2.9,6.9,4.3,10.3h1l1.7-8.4c0.2-0.9,0.4-1.5,0.5-2.1c0.2-0.5,0.4-0.7,0.9-0.7l0.5-0.1l0.1-0.5h-3.6l-0.1,0.5l0.6,0.1
				c0.5,0.1,0.8,0.2,0.7,0.7c0,0.6-0.1,1.2-0.3,2.1l-1.3,6.1h-0.1c-1.3-3.2-2.6-6.4-3.9-9.5h-2.8L154.2,43L154.2,43z"/>
			<path class="st0" d="M170.6,43.6c3.2,0.1,3.5,2.4,3.5,3.8c0,1.5-0.3,2.9-1,4.1c-0.9,1.6-2.2,2.7-4.8,2.7c-0.8,0-1.4-0.1-1.3-0.9
				l1.9-9.1C169.1,43.6,169.3,43.6,170.6,43.6L170.6,43.6z M164,54.7h4.7c3.1,0,4.9-1.2,6-3.1c0.9-1.5,1-2.9,1-3.9
				c0-1.4-0.4-2.7-1.3-3.5c-0.9-0.8-2.3-1.2-4-1.2h-4.1l-0.1,0.5l0.9,0.1c0.4,0,0.4,0.3,0.3,0.8l-1.8,8.9c-0.1,0.6-0.3,0.8-0.6,0.8
				l-0.9,0.1L164,54.7L164,54.7z"/>
		</g>
		<path class="st1" d="M35.5,99.3h14c11.2,0,13.4-7,13.4-11.7c0-5.9-3.6-8.5-7-9.3v-0.2c6.1-0.9,8.7-5.1,8.7-9.4
			c0-2.9-1-5.3-2.9-6.7c-2-1.5-5-1.9-8.3-1.9H42.3L42,61.8l2.7,0.3c1.1,0.1,1.3,0.8,1,2.7l-5.4,29.7c-0.3,1.9-0.8,2.5-1.9,2.7
			l-2.6,0.3L35.5,99.3z M49.3,79.2c4.6,0,8.6,1.6,8.6,8c0,5-2.5,10.1-8.7,10.1c-4.6,0-4.7-1.4-4.3-3.6l2.6-14.5H49.3z M47.9,77.3
			l2.4-13.1c0.3-1.7,0.6-2,3.6-2c3.9,0,6,2.4,6,6.3c0,2.9-1.1,5.1-2.7,6.7c-1.5,1.4-3.9,2.1-6.4,2.1H47.9z"/>
		<path class="st1" d="M90.8,72.7c-10.9,0-13.6,12.8-13.6,17.3c0,5.5,2.7,9.4,8.5,9.4c5,0,8.3-2.8,10.4-6.6
			c2.1-3.7,2.9-8.1,2.9-10.9C99,74.6,94.5,72.7,90.8,72.7 M90.7,74.5c2.8,0,3.8,2.2,3.8,5.4c0,3.7-2.4,17.6-8.7,17.6
			c-2.7,0-4.2-1.8-4.2-5.5C81.7,86.4,84.6,74.5,90.7,74.5"/>
		<path class="st1" d="M131,72.7l-0.4,1.1c-0.8-0.6-2.1-1.1-3.4-1.1c-11,0-16.2,13.6-16.2,20.5c0,3.1,1.3,6.2,4.4,6.2
			c4.9,0,9.2-6.4,11.9-11.7h0.1l-1.6,5.9c-1,3.7-0.5,5.8,2,5.8c3.5,0,6.1-3.5,7.7-7.5l-1.1-0.7c-0.8,1.8-2.9,5.5-4.1,5.5
			c-0.9,0-0.9-1.2-0.5-2.8l5-21.1H131V72.7z M130.2,75.6c-0.8,3.8-2.5,9-4.9,13.1c-2.6,4.4-5.4,7.9-7.6,7.9c-1.5,0-2-1.6-2-3.6
			c0-5.7,4.5-18.5,11.8-18.5C128.5,74.5,129.5,74.9,130.2,75.6"/>
		<path class="st1" d="M148.5,60.3l-8.6,1.2l-0.3,1.2l2.6,0.4c1.2,0.2,1.3,0.5,0.9,2.5l-6.9,33.7h1.5l1.7-3.6
			c0.8,2.2,3.2,3.6,5.8,3.6c5.4,0,9.3-4,11.6-8.6s3.1-9.2,3.1-11.5c0-3.8-1.5-6.5-5-6.5s-8.1,3.6-11.7,10.7h-0.1L148.5,60.3z
			 M155.5,79.7c0,3.7-2.8,17.8-9.6,17.8c-2.4,0-3.8-1.9-3.8-4.5c0-2.5,1-6.1,2.4-9.1c2.1-4.1,5.6-8.6,8.4-8.6
			C154.7,75.4,155.5,76.7,155.5,79.7"/>
		<path class="st1" d="M169.9,72.7c-4.7,0-7.5,3.4-7.5,7.6c0,2.7,1.7,5.1,4.1,7.3c2,1.8,3.2,4,3.2,6.1c0,2.4-1.4,3.9-3.3,3.9
			c-1.7,0-3.4-1.6-4.2-4.4c-0.3-1-0.7-1.6-1.5-1.6c-1.4,0-2.4,1.4-2.4,2.8c0,2.2,2.5,4.9,6.9,4.9c5,0,8-3.6,8-7.8
			c0-2.8-1.2-5.1-4.2-7.9c-2.8-2.5-3.3-4.2-3.3-5.7c0-1.7,1.2-3.4,2.9-3.4c1.5,0,2.7,1.1,3.7,3.6c0.2,0.6,0.6,1,1.3,1
			c0.9,0,2.2-0.8,2.2-2.4C175.7,75.1,174,72.7,169.9,72.7"/>
		<path class="st1" d="M103.9,96.6c-0.9,0-0.9-1.2-0.5-2.8l6.3-29.2l1-4.3l-8.5,1.2l-0.3,1.2l2.6,0.4c0.8,0.1,1.2,0.3,1.1,1.2
			l-6.3,30c-0.7,3-0.1,5.1,2.4,5.1c3.3,0,5.9-3.5,7.5-7.5l-1.1-0.7C107.2,92.9,105.2,96.6,103.9,96.6z"/>
		<path class="st1" d="M74.3,91.1c-0.8,1.8-2.9,5.5-4.1,5.5c-0.9,0-0.9-1.2-0.5-2.8l1.1-5.1l0,0L73.3,77l1-4.3l-8.5,1.2l-0.3,1.2
			l2.6,0.4c0.8,0.1,1.2,0.3,1.1,1.2l-2.5,11.9l0,0l-1.2,5.6c-0.7,3-0.1,5.1,2.4,5.1c3.3,0,5.9-3.5,7.5-7.5L74.3,91.1z"/>
	</g>
	<path class="st1" d="M67.9,34.9c-0.8-0.1-1.5,0-1.8,0.2c-0.1,0-0.2,0.1-0.3,0.1c-4.3,0.2-12.1,1.4-17.8,7.9
		c-0.1,0.1-0.1,0.3-0.4,0.1c-0.1-0.1-0.3-0.1-0.5-0.2c-0.2,0-0.1-0.2-0.1-0.3c2.5-6.8,9-10.4,12.8-11.9c0.1,0,0.2,0,0.3,0
		c0.4,0,1.1,0,1.7-0.2c1.1-0.3,1.8-0.8,1.7-1.1c-0.1-0.3-1.1-0.3-2.2,0c-0.7,0.2-1.2,0.4-1.5,0.7c-0.1,0.1-0.2,0.2-0.3,0.2
		c-3.2,1.3-10.4,5-13,12.1c-0.1,0.2-0.3,0.4-0.5,0.4c-0.9,0-1.4,0.3-1.8,0.8c-1,1.2-1.9,3.3-2.3,4.2c-0.1,0.2-0.4,0.2-0.5-0.1
		c-0.5-5.2-3.6-33-16-45.1c-0.3-0.3-0.6-0.6-1-0.8c-1.4-1-3.2-1.4-4.8-0.9c-2,0.5-3.1,2.4-3.9,4.1c-1,2.3-1.9,4.6-2.6,7
		c-1.4,4.8-2.2,9.8-2.1,14.8c0,0.3,0,0.5,0,0.8c0.1,1.9,1,3.7,2.5,5.2c0,0,1.3,1.4,5.2,4.4c0.2,0.1,0,0.4-0.2,0.3
		c-1.7-0.5-3-0.7-3.8-0.8c-4.8-0.9-9.5,0.7-12.1,4.5c-2.4,3.7-2.3,8.4,0,12.4c0.2,0.3,0.2,0.6,0.1,0.9c-0.6,2.3,0.5,4.9,2.8,6.5
		c0.2,0.1,0.4,0.2,0.6,0.3c0.3,0.2,0.5,0.5,0.5,0.8c0.1,1.8,1.2,3.7,2.9,4.9c1.1,0.7,2.4,1.1,2.7,1.1c5.5,0.7,18.3-6,18.6-6.2
		c0.3-0.2,0.8,0.2,0.6,0.4c-0.4,0.6-1,1.1-1.5,1.7c-0.7,0.7-1.4,1.3-2.2,1.9c-1.4,0.9-2.8,1.8-4.3,2.5c-0.8,0.4-1.6,0.7-2.4,1
		c-0.4,0.2-0.7,0.3-1,0.6c-0.9,0.8-2.6,3.5-2.9,4.5c-0.1,0.4-0.3,1,0.1,1.3c0.7,0.6,3.7-1.2,8.4-4c1.9-1.1,3.8-2.2,5.6-3.6
		c2.4-1.9,4.4-4.4,6.1-6.9c0.4-0.6,1-1,1.5-1.5c1.5-1.6,2.9-3.1,3.7-5.1c0.7-1.7,1.1-3.5,1.3-5.3c0-0.3,0.3-0.5,0.6-0.4
		c0.7,0.2,1.9,0.6,2.7,0.8c0.9,0.2,2.3,0.7,2.9-0.4c0.6-1-1.1-4.4-1.9-5.6c-0.1-0.1-0.1-0.3,0-0.4c5.6-6.4,13.1-7.6,17.4-7.8
		c0.1,0,0.2,0,0.3,0.1c0.4,0.2,1,0.4,1.7,0.4c1.1,0.1,2.1-0.2,2.1-0.5C69.9,35.3,69,35,67.9,34.9z"/>
	<path class="st2" d="M29.3,12.2c0.5,0.6,4.2,5.4,2.2,5.5c-2.2,0.2-7.4-5.6-7.4-7.2C24.2,8.4,27.5,9.7,29.3,12.2z"/>
	<path class="st3" d="M23.4,14.1c0.8,0.5,1.4,1.3,2.1,1.9c0.7,0.7,1.5,1.4,2.2,2.2c0.4,0.5,0.9,1.1,0.9,1.8v2.4c0,0.2,0,0.7-0.3,0.9
		c-0.3,0.2-0.5-0.1-0.7-0.2c-0.7-0.5-1.3-1-2-1.5l-3.8-2.9c0,0-1.9-1.4-1.5-2.5c0.3-0.8,1.2-2.2,2.1-2.3
		C22.8,13.8,23.1,13.9,23.4,14.1z"/>
	<path class="st3" d="M28.1,27.2l1.2,3.2c0.1,0.3,0.3,0.9,0,1.1s-0.8-0.2-1.2-0.4c-1.3-0.8-2.5-1.6-3.7-2.4l-7.2-4.6
		c0,0-3.6-2.2-3.4-3.7c0.1-1,0.7-2.9,2-2.8c0.5,0,1.1,0.2,1.6,0.5c1.4,0.9,2.7,2,4,3c1.5,1.1,2.9,2.2,4.3,3.4
		C26.7,25.3,27.7,26.2,28.1,27.2z"/>
	<path class="st2" d="M21.3,3.8c0.6,0.1,1.2,0.5,1.7,0.9c0.5,0.5,0.9,1,1.1,1.6s0.2,1.4-0.2,1.9c-1,1.2-2.7,0.3-3.4-0.7
		c-0.6-0.8-1.1-2.3-0.4-3.2C20.4,4,20.8,3.8,21.3,3.8z"/>
	<path class="st2" d="M17.2,9.1c1,0,1.9,0.8,2.4,1.6c0.8,1.3,0.5,3.8-1.5,3.2c-0.9-0.3-2.3-1.1-2.5-2.5C15.5,10.4,16.3,9.1,17.2,9.1
		z"/>
	<path class="st3" d="M9.2,40c1.5-0.5,3.2-0.3,4.8,0c2.7,0.5,5.3,1.7,7.5,3.3c0.3,0.2,0.6,0.5,0.7,0.8c0.3,0.7-0.3,1.4-1,1.3
		c-0.3,0-10.2-2-12.4-2.6c-0.6-0.1-1.4-0.4-1.5-1C7.1,40.9,8.5,40.2,9.2,40z"/>
	<path class="st3" d="M4.8,51.2C4,50.4,4,48.8,4.3,48.1c0.4-1.1,1.2-1.8,2.3-2.2c1.2-0.4,2.3-0.3,3.5-0.2c2.5,0.3,9,1.4,9.7,1.7
		c0.6,0.3,0.6,1,0,1.3c-1.4,0.6-3.9,0.9-7.7,1.7C9.1,51.1,5.7,51.9,4.8,51.2z"/>
	<path class="st3" d="M7.9,58.6C7.9,58.6,7.8,58.6,7.9,58.6c-0.7-0.4-1.1-1.1-1.2-1.8c0-0.7,0.3-1.4,0.8-1.9s1.2-0.7,1.9-1
		c1.7-0.5,8.1-2.5,9.8-2.6c4-0.3,6.9-0.1,10.8,0.5c1.6,0.2,2.5,0.4,2.9,0.8c0.5,0.4-0.2,0.8-0.6,1c-6.2,1.8-12,3.1-18.2,4.7
		C11,59,9.6,59.4,7.9,58.6z"/>
	<path class="st2" d="M29.9,59.2c-3.3,1.7-5.1,2.6-8.3,3.8c-2.1,0.8-4.2,1.5-6.3,2c-1.4,0.4-3.4,0.3-4.3-1.2
		c-0.9-1.5,0.7-2.1,1.7-2.4c3.5-1.1,11.5-3,14.2-3.8c2.6-0.8,4.9-1.5,5.5-1.5c0.3,0,0.8,0.4,0.5,0.7C32.3,57.5,31.7,58.2,29.9,59.2z
		"/>
	<path class="st3" d="M33.7,34.6C33,33,30.5,27,30.3,25.4c-0.1-0.6-0.3-2.6,0.8-2.6c2,0,2.9,2.9,3.4,4c1.3,2.9,1.9,6.1,2.6,9.2
		c0.4,1.7,1.6,5.8,0.9,6.1C37.3,42.4,34.7,36.7,33.7,34.6z"/>
	<path class="st2" d="M22.8,47.3c0.6-0.8,1.2-1.8,3.1-1.8s5.3,1.6,7.3,2.6c2,1.1,2.8,1.7,3,2.2s-0.5,1.1-2.2,0.5
		c-4.5-1.5-10.5-1.5-11.4-2C21.8,48.5,22.5,47.7,22.8,47.3z"/>
	<path class="st3" d="M38.1,48.8c-1.3-1.1-2.5-2.3-4.5-3.9C27.7,40,23.7,37,17,32.3c-1.2-0.9-2.4-1.7-2.8-3.1
		c-0.1-0.6-0.1-1.1,0.2-1.5c0.9-1.8,2.9-0.6,2.9-0.6l10.4,6.5c2.8,1.7,3.7,3.2,3.7,3.2s7.2,10.9,7.5,11.6
		C39.4,48.9,38.6,49.3,38.1,48.8z"/>
</g>
<path class="st1" d="M181,73.8c1.3,0,2.3,1,2.3,2.4c0,1.3-1,2.4-2.3,2.4s-2.3-1-2.3-2.4C178.7,74.9,179.7,73.8,181,73.8 M181,78.9
	c1.5,0,2.7-1.2,2.7-2.7s-1.2-2.7-2.7-2.7s-2.7,1.2-2.7,2.7C178.3,77.7,179.5,78.9,181,78.9 M180.6,75.1c0-0.1,0-0.2,0.3-0.2
	s0.6,0.1,0.6,0.6c0,0.4-0.3,0.6-0.6,0.6h-0.3V75.1z M181,77.6v-0.2h-0.2c-0.1,0-0.2-0.1-0.2-0.2v-0.9h0.3c0.2,0,0.4,0.1,0.5,0.2
	s0.1,0.5,0.2,0.8c0.1,0.2,0.2,0.3,0.6,0.3h0.3v-0.1c-0.1,0-0.2-0.1-0.3-0.1c-0.1-0.1-0.2-0.3-0.2-0.5c-0.1-0.3-0.1-0.6-0.6-0.7l0,0
	c0.4-0.1,0.7-0.3,0.7-0.7c0-0.4-0.2-0.7-1-0.7h-1.4V75h0.2c0.1,0,0.2,0.1,0.2,0.2v2.1c0,0.1,0,0.2-0.2,0.2h-0.2v0.2h1.3V77.6z"/>
<g>
	<g>
		<defs>
			<rect id="SVGID_1_" x="219.5" y="43" width="70.4" height="41.1"/>
		</defs>
		<clipPath id="SVGID_00000036217284652143986500000013436110529282291591_">
			<use xlink:href="#SVGID_1_"  style="overflow:visible;"/>
		</clipPath>
		
			<rect x="219.5" y="43" style="clip-path:url(#SVGID_00000036217284652143986500000013436110529282291591_);fill:#FFFFFF;" width="70.4" height="41.1"/>
		
			<rect x="219.5" y="43" style="clip-path:url(#SVGID_00000036217284652143986500000013436110529282291591_);fill:#EF943D;" width="70.4" height="13.7"/>
		
			<rect x="219.5" y="70.3" style="clip-path:url(#SVGID_00000036217284652143986500000013436110529282291591_);fill:#3C8941;" width="70.4" height="13.7"/>
		<g style="clip-path:url(#SVGID_00000036217284652143986500000013436110529282291591_);">
			<defs>
				<rect id="SVGID_00000085232567826237552230000009923824834180304309_" x="219.5" y="43" width="70.4" height="41.1"/>
			</defs>
			<clipPath id="SVGID_00000145038287437962116780000014752631581117720751_">
				<use xlink:href="#SVGID_00000085232567826237552230000009923824834180304309_"  style="overflow:visible;"/>
			</clipPath>
			<path style="clip-path:url(#SVGID_00000145038287437962116780000014752631581117720751_);fill:#2A2874;" d="M254.7,57.3
				c-3.4,0-6.2,2.8-6.2,6.2c0,3.4,2.8,6.2,6.2,6.2s6.2-2.8,6.2-6.2C260.9,60.1,258.1,57.3,254.7,57.3 M254.7,57.9l-0.2,3.1l0.2,1.8
				l0.2-1.8L254.7,57.9c0.2,0,0.3,0,0.5,0c0,0,0,0,0,0c0,0.1,0.1,0.3,0.3,0.3c0.1,0,0.2-0.1,0.3-0.2c0.2,0,0.3,0.1,0.5,0.1l-1,2.9
				l-0.3,1.7l0.6-1.7l0.6-3c0.2,0,0.3,0.1,0.4,0.1c0,0,0,0.1,0,0.1c0,0.1,0.1,0.3,0.3,0.3c0.1,0,0.2-0.1,0.2-0.2
				c0.1,0.1,0.3,0.1,0.4,0.2l-1.7,2.6l-0.7,1.6l1-1.4l1.4-2.8c0.1,0.1,0.3,0.2,0.4,0.2c0,0-0.1,0.1-0.1,0.2c0,0.1,0.1,0.3,0.3,0.3
				c0.1,0,0.2,0,0.2-0.1c0.1,0.1,0.2,0.2,0.3,0.3l-2.3,2.1l-1.1,1.4l1.4-1.1l2.1-2.3c0.1,0.1,0.2,0.2,0.3,0.3
				c-0.1,0-0.1,0.1-0.1,0.2c0,0.1,0.1,0.3,0.3,0.3c0.1,0,0.1,0,0.2,0c0.1,0.1,0.2,0.3,0.3,0.4l-2.8,1.4l-1.4,1l1.6-0.7l2.6-1.7
				c0.1,0.1,0.2,0.3,0.2,0.4c-0.1,0-0.2,0.1-0.2,0.2c0,0.1,0.1,0.3,0.3,0.3c0,0,0.1,0,0.1,0c0,0.1,0.1,0.3,0.1,0.4l-3,0.6l-1.7,0.6
				l1.7-0.3l2.9-1c0,0.1,0.1,0.3,0.1,0.5c-0.1,0-0.2,0.1-0.2,0.3c0,0.1,0.1,0.3,0.3,0.3c0,0,0,0,0,0c0,0.2,0,0.3,0,0.5l-3.1-0.2
				l-1.8,0.2l1.8,0.2l3.1-0.2c0,0.2,0,0.3,0,0.5c0,0,0,0,0,0c-0.1,0-0.3,0.1-0.3,0.3c0,0.1,0.1,0.2,0.2,0.3c0,0.2-0.1,0.3-0.1,0.5
				l-1.1-0.3l-1.9-0.6l-1.7-0.3l0,0l0,0l1.7,0.6l3,0.6c0,0.2-0.1,0.3-0.1,0.4c0,0,0,0,0,0h0c0,0,0,0-0.1,0c-0.1,0-0.3,0.1-0.3,0.3
				c0,0,0,0.1,0,0.1c0,0,0,0,0,0c0,0,0,0.1,0.1,0.1h0c0,0,0,0,0,0h0c0,0,0,0,0,0c0,0,0,0,0,0c0,0,0,0,0,0c-0.1,0.1-0.1,0.3-0.2,0.4
				l-2.6-1.7h0l-1.6-0.7l0,0l0.8,0.6l0.6,0.4h0l2.8,1.4c-0.1,0.1-0.2,0.3-0.3,0.4c0,0-0.1,0-0.1,0c-0.1,0-0.3,0.1-0.3,0.3
				c0,0.1,0,0.1,0.1,0.2c-0.1,0.1-0.2,0.2-0.3,0.3l-2.1-2.3l-1.4-1.1l1.1,1.4l2.3,2.1c-0.1,0.1-0.2,0.2-0.3,0.3c0,0-0.1-0.1-0.2-0.1
				c-0.1,0-0.3,0.1-0.3,0.3c0,0,0,0.1,0,0.1c-0.1,0.1-0.3,0.2-0.4,0.3l-1.4-2.8l-1-1.4h0l0.7,1.6l1.7,2.6c-0.1,0.1-0.3,0.1-0.4,0.2
				c0-0.1-0.1-0.2-0.2-0.2c-0.1,0-0.3,0.1-0.3,0.3c0,0,0,0.1,0,0.1c-0.1,0.1-0.3,0.1-0.4,0.1l-0.6-3l-0.6-1.7l0,0l0.3,1.7l1,2.9
				c-0.1,0-0.3,0.1-0.5,0.1c0-0.1-0.1-0.2-0.3-0.2c-0.1,0-0.3,0.1-0.3,0.3c0,0,0,0,0,0c-0.2,0-0.3,0-0.5,0l0.2-3.1l-0.2-1.8
				l-0.2,1.8l0.2,3.1c-0.2,0-0.3,0-0.5,0c0,0,0,0,0,0c0-0.1-0.1-0.3-0.3-0.3c-0.1,0-0.2,0.1-0.3,0.2c-0.2,0-0.3-0.1-0.4-0.1l1-2.9
				l0.3-1.7l-0.6,1.7l-0.6,3c-0.2,0-0.3-0.1-0.4-0.1c0,0,0-0.1,0-0.1c0-0.1-0.1-0.3-0.3-0.3c-0.1,0-0.2,0.1-0.2,0.2
				c-0.1-0.1-0.3-0.1-0.4-0.2l1.7-2.6l0.7-1.6l-1,1.4l-1.4,2.8c-0.1-0.1-0.3-0.2-0.4-0.3c0,0,0-0.1,0-0.2c0-0.1-0.1-0.3-0.3-0.3
				c-0.1,0-0.2,0-0.2,0.1c-0.1-0.1-0.2-0.2-0.3-0.3l2.3-2.1l1.1-1.4v0l-1.4,1.1l-2.1,2.3c-0.1-0.1-0.2-0.2-0.3-0.3
				c0.1,0,0.1-0.1,0.1-0.2c0-0.1-0.1-0.3-0.3-0.3c-0.1,0-0.1,0-0.2,0.1c-0.1-0.1-0.2-0.3-0.3-0.4l2.8-1.4l1.4-1l-1.6,0.7l-2.6,1.7
				c-0.1-0.1-0.1-0.3-0.2-0.4c0.1,0,0.2-0.1,0.2-0.2c0-0.1-0.1-0.3-0.3-0.3c0,0-0.1,0-0.1,0c-0.1-0.1-0.1-0.3-0.1-0.5l3-0.6l1.7-0.6
				l-1.7,0.3l-2.9,1c0-0.2-0.1-0.3-0.1-0.5c0.1,0,0.2-0.1,0.2-0.3c0-0.1-0.1-0.3-0.3-0.3c0,0,0,0,0,0c0-0.2,0-0.3,0-0.5l3.1,0.2
				l1.8-0.2l-1.8-0.2l-3.1,0.2c0-0.2,0-0.3,0-0.5c0,0,0,0,0,0c0.1,0,0.3-0.1,0.3-0.3c0-0.1-0.1-0.2-0.2-0.3c0-0.2,0.1-0.3,0.1-0.5
				l2.9,1l1.7,0.3l-1.7-0.6l-3-0.6c0-0.2,0.1-0.3,0.1-0.4c0,0,0.1,0,0.1,0c0.1,0,0.3-0.1,0.3-0.3c0-0.1-0.1-0.2-0.2-0.2
				c0.1-0.1,0.1-0.3,0.2-0.4l2.6,1.7l1.6,0.7l-1.4-1l-2.8-1.4c0.1-0.1,0.2-0.3,0.3-0.4c0,0,0.1,0.1,0.2,0.1c0.1,0,0.3-0.1,0.3-0.3
				c0-0.1,0-0.2-0.1-0.2c0.1-0.1,0.2-0.2,0.3-0.3l2.1,2.3l1.4,1.1l-1.1-1.4l-2.3-2.1c0.1-0.1,0.2-0.2,0.3-0.3c0,0.1,0.1,0.1,0.2,0.1
				c0.1,0,0.3-0.1,0.3-0.3c0-0.1,0-0.1,0-0.2c0.1-0.1,0.3-0.2,0.4-0.3l1.4,2.8l1,1.4l-0.7-1.6l-1.7-2.6c0.1-0.1,0.3-0.1,0.4-0.2
				c0,0.1,0.1,0.2,0.2,0.2c0.1,0,0.3-0.1,0.3-0.3c0,0,0-0.1,0-0.1c0.1-0.1,0.3-0.1,0.5-0.1l0.6,3l0.6,1.7l-0.3-1.7l-1-2.9
				c0.1,0,0.3-0.1,0.5-0.1c0,0.1,0.1,0.2,0.3,0.2c0.1,0,0.3-0.1,0.3-0.3c0,0,0,0,0,0C254.4,57.9,254.5,57.9,254.7,57.9"/>
			<path style="clip-path:url(#SVGID_00000145038287437962116780000014752631581117720751_);fill:#FFFFFF;" d="M254.7,62.6
				c0.5,0,0.9,0.4,0.9,0.9c0,0.5-0.4,0.9-0.9,0.9c-0.5,0-0.9-0.4-0.9-0.9C253.8,63,254.2,62.6,254.7,62.6"/>
			<path style="clip-path:url(#SVGID_00000145038287437962116780000014752631581117720751_);fill:#2A2874;" d="M254.7,62.8
				c0.4,0,0.7,0.3,0.7,0.7c0,0.4-0.3,0.7-0.7,0.7c-0.4,0-0.7-0.3-0.7-0.7C254,63.1,254.3,62.8,254.7,62.8"/>
		</g>
	</g>
</g>
</svg>
